<svg width="489" height="57" viewBox="0 0 489 57" fill="none" xmlns="http://www.w3.org/2000/svg">
<path d="M109.875 34.1719C109.453 37.7812 108.117 40.5703 105.867 42.5391C103.633 44.4922 100.656 45.4688 96.9375 45.4688C92.9062 45.4688 89.6719 44.0234 87.2344 41.1328C84.8125 38.2422 83.6016 34.375 83.6016 29.5312V26.25C83.6016 23.0781 84.1641 20.2891 85.2891 17.8828C86.4297 15.4766 88.0391 13.6328 90.1172 12.3516C92.1953 11.0547 94.6016 10.4062 97.3359 10.4062C100.961 10.4062 103.867 11.4219 106.055 13.4531C108.242 15.4688 109.516 18.2656 109.875 21.8438H105.352C104.961 19.125 104.109 17.1562 102.797 15.9375C101.5 14.7188 99.6797 14.1094 97.3359 14.1094C94.4609 14.1094 92.2031 15.1719 90.5625 17.2969C88.9375 19.4219 88.125 22.4453 88.125 26.3672V29.6719C88.125 33.375 88.8984 36.3203 90.4453 38.5078C91.9922 40.6953 94.1562 41.7891 96.9375 41.7891C99.4375 41.7891 101.352 41.2266 102.68 40.1016C104.023 38.9609 104.914 36.9844 105.352 34.1719H109.875ZM114.211 32.0859C114.211 29.6016 114.695 27.3672 115.664 25.3828C116.648 23.3984 118.008 21.8672 119.742 20.7891C121.492 19.7109 123.484 19.1719 125.719 19.1719C129.172 19.1719 131.961 20.3672 134.086 22.7578C136.227 25.1484 137.297 28.3281 137.297 32.2969V32.6016C137.297 35.0703 136.82 37.2891 135.867 39.2578C134.93 41.2109 133.578 42.7344 131.812 43.8281C130.062 44.9219 128.047 45.4688 125.766 45.4688C122.328 45.4688 119.539 44.2734 117.398 41.8828C115.273 39.4922 114.211 36.3281 114.211 32.3906V32.0859ZM118.57 32.6016C118.57 35.4141 119.219 37.6719 120.516 39.375C121.828 41.0781 123.578 41.9297 125.766 41.9297C127.969 41.9297 129.719 41.0703 131.016 39.3516C132.312 37.6172 132.961 35.1953 132.961 32.0859C132.961 29.3047 132.297 27.0547 130.969 25.3359C129.656 23.6016 127.906 22.7344 125.719 22.7344C123.578 22.7344 121.852 23.5859 120.539 25.2891C119.227 26.9922 118.57 29.4297 118.57 32.6016ZM146.836 19.6406L146.977 22.8281C148.914 20.3906 151.445 19.1719 154.57 19.1719C159.93 19.1719 162.633 22.1953 162.68 28.2422V45H158.344V28.2188C158.328 26.3906 157.906 25.0391 157.078 24.1641C156.266 23.2891 154.992 22.8516 153.258 22.8516C151.852 22.8516 150.617 23.2266 149.555 23.9766C148.492 24.7266 147.664 25.7109 147.07 26.9297V45H142.734V19.6406H146.836ZM177.586 39.1172L183.867 19.6406H188.297L179.203 45H175.898L166.711 19.6406H171.141L177.586 39.1172ZM202.664 45.4688C199.227 45.4688 196.43 44.3438 194.273 42.0938C192.117 39.8281 191.039 36.8047 191.039 33.0234V32.2266C191.039 29.7109 191.516 27.4688 192.469 25.5C193.438 23.5156 194.781 21.9688 196.5 20.8594C198.234 19.7344 200.109 19.1719 202.125 19.1719C205.422 19.1719 207.984 20.2578 209.812 22.4297C211.641 24.6016 212.555 27.7109 212.555 31.7578V33.5625H195.375C195.438 36.0625 196.164 38.0859 197.555 39.6328C198.961 41.1641 200.742 41.9297 202.898 41.9297C204.43 41.9297 205.727 41.6172 206.789 40.9922C207.852 40.3672 208.781 39.5391 209.578 38.5078L212.227 40.5703C210.102 43.8359 206.914 45.4688 202.664 45.4688ZM202.125 22.7344C200.375 22.7344 198.906 23.375 197.719 24.6562C196.531 25.9219 195.797 27.7031 195.516 30H208.219V29.6719C208.094 27.4688 207.5 25.7656 206.438 24.5625C205.375 23.3438 203.938 22.7344 202.125 22.7344ZM229.852 23.5312C229.195 23.4219 228.484 23.3672 227.719 23.3672C224.875 23.3672 222.945 24.5781 221.93 27V45H217.594V19.6406H221.812L221.883 22.5703C223.305 20.3047 225.32 19.1719 227.93 19.1719C228.773 19.1719 229.414 19.2812 229.852 19.5V23.5312ZM240.914 13.5V19.6406H245.648V22.9922H240.914V38.7188C240.914 39.7344 241.125 40.5 241.547 41.0156C241.969 41.5156 242.688 41.7656 243.703 41.7656C244.203 41.7656 244.891 41.6719 245.766 41.4844V45C244.625 45.3125 243.516 45.4688 242.438 45.4688C240.5 45.4688 239.039 44.8828 238.055 43.7109C237.07 42.5391 236.578 40.875 236.578 38.7188V22.9922H231.961V19.6406H236.578V13.5H240.914ZM269.133 10.875L280.289 38.7188L291.445 10.875H297.281V45H292.781V31.7109L293.203 17.3672L282 45H278.555L267.375 17.4375L267.82 31.7109V45H263.32V10.875H269.133ZM303.398 32.0859C303.398 29.6016 303.883 27.3672 304.852 25.3828C305.836 23.3984 307.195 21.8672 308.93 20.7891C310.68 19.7109 312.672 19.1719 314.906 19.1719C318.359 19.1719 321.148 20.3672 323.273 22.7578C325.414 25.1484 326.484 28.3281 326.484 32.2969V32.6016C326.484 35.0703 326.008 37.2891 325.055 39.2578C324.117 41.2109 322.766 42.7344 321 43.8281C319.25 44.9219 317.234 45.4688 314.953 45.4688C311.516 45.4688 308.727 44.2734 306.586 41.8828C304.461 39.4922 303.398 36.3281 303.398 32.3906V32.0859ZM307.758 32.6016C307.758 35.4141 308.406 37.6719 309.703 39.375C311.016 41.0781 312.766 41.9297 314.953 41.9297C317.156 41.9297 318.906 41.0703 320.203 39.3516C321.5 37.6172 322.148 35.1953 322.148 32.0859C322.148 29.3047 321.484 27.0547 320.156 25.3359C318.844 23.6016 317.094 22.7344 314.906 22.7344C312.766 22.7344 311.039 23.5859 309.727 25.2891C308.414 26.9922 307.758 29.4297 307.758 32.6016ZM336.023 19.6406L336.164 22.8281C338.102 20.3906 340.633 19.1719 343.758 19.1719C349.117 19.1719 351.82 22.1953 351.867 28.2422V45H347.531V28.2188C347.516 26.3906 347.094 25.0391 346.266 24.1641C345.453 23.2891 344.18 22.8516 342.445 22.8516C341.039 22.8516 339.805 23.2266 338.742 23.9766C337.68 24.7266 336.852 25.7109 336.258 26.9297V45H331.922V19.6406H336.023ZM368.93 45.4688C365.492 45.4688 362.695 44.3438 360.539 42.0938C358.383 39.8281 357.305 36.8047 357.305 33.0234V32.2266C357.305 29.7109 357.781 27.4688 358.734 25.5C359.703 23.5156 361.047 21.9688 362.766 20.8594C364.5 19.7344 366.375 19.1719 368.391 19.1719C371.688 19.1719 374.25 20.2578 376.078 22.4297C377.906 24.6016 378.82 27.7109 378.82 31.7578V33.5625H361.641C361.703 36.0625 362.43 38.0859 363.82 39.6328C365.227 41.1641 367.008 41.9297 369.164 41.9297C370.695 41.9297 371.992 41.6172 373.055 40.9922C374.117 40.3672 375.047 39.5391 375.844 38.5078L378.492 40.5703C376.367 43.8359 373.18 45.4688 368.93 45.4688ZM368.391 22.7344C366.641 22.7344 365.172 23.375 363.984 24.6562C362.797 25.9219 362.062 27.7031 361.781 30H374.484V29.6719C374.359 27.4688 373.766 25.7656 372.703 24.5625C371.641 23.3438 370.203 22.7344 368.391 22.7344ZM391.828 38.6484L397.734 19.6406H402.375L392.18 48.9141C390.602 53.1328 388.094 55.2422 384.656 55.2422L383.836 55.1719L382.219 54.8672V51.3516L383.391 51.4453C384.859 51.4453 386 51.1484 386.812 50.5547C387.641 49.9609 388.32 48.875 388.852 47.2969L389.812 44.7188L380.766 19.6406H385.5L391.828 38.6484Z" fill="black"/>
<path d="M50 28L12.5 6.34937L12.5 49.6506L50 28Z" fill="#FF5959"/>
<path d="M489 28L451.5 6.34937L451.5 49.6506L489 28Z" fill="#97FFAE"/>
</svg>
